<svg xmlns="http://www.w3.org/2000/svg" style="display: none;">
  
    <symbol id="icon-arrow-up" viewBox="0 0 512 512">
      <path d="m399 338c0 3-1 5-3 7l-15 14c-1 2-4 3-6 3-3 0-5-1-7-3l-112-112-112 112c-2 2-4 3-7 3-2 0-5-1-6-3l-15-14c-2-2-3-4-3-7 0-2 1-4 3-6l133-133c2-2 5-3 7-3 2 0 5 1 7 3l133 133c2 2 3 4 3 6z"/>
    </symbol>
  
    <symbol id="icon-arrow-down" viewBox="0 0 512 512">
      <path d="m399 210c0 3-1 5-3 7l-133 133c-2 2-5 3-7 3-2 0-5-1-7-3l-133-133c-2-2-3-4-3-7 0-2 1-4 3-6l15-15c1-1 4-2 6-2 3 0 5 1 7 2l112 113 112-113c2-1 4-2 7-2 2 0 5 1 6 2l15 15c2 2 3 4 3 6z"/>
    </symbol>
  
    <symbol id="icon-bin" viewBox="0 0 512 512">
      <path d="m171 149c-6 0-11 5-11 11l0 267c0 6 5 10 11 10c6 0 10-4 10-10l0-267c0-6-4-11-10-11z m85 0c-6 0-11 5-11 11l0 267c0 6 5 10 11 10c6 0 11-4 11-10l0-267c0-6-5-11-11-11z m85 0c-6 0-10 5-10 11l0 267c0 6 4 10 10 10c6 0 11-4 11-10l0-267c0-6-5-11-11-11z m171-74l-139 0l0-64l-234 0l0 64l-139 0l0 21l75 0l0 416l362 0l0-416l75 0z m-352-43l192 0l0 43l-192 0z m256 459l-320 0l0-395l320 0z"/>
    </symbol>
  
</svg>
